<svg width="23" height="22" fill="none" xmlns="http://www.w3.org/2000/svg"><path d="M6.195 13.844a2.098 2.098 0 01-.877-.129 2.056 2.056 0 01-.739-.477 2.48 2.48 0 01-.555-1.734A2.504 2.504 0 014.6 9.73a2.153 2.153 0 011.671-.621c.458-.009.913.083 1.33.267l-.302.78a3.07 3.07 0 00-1.04-.24c-.81 0-1.212.524-1.212 1.57-.03.407.077.812.302 1.156a1.074 1.074 0 00.889.388c.44-.001.873-.112 1.257-.322v.845c-.177.102-.37.176-.57.218-.24.053-.486.076-.732.072h.002zm4.047-.082h-.995V7.337h.995v6.425z" fill="#96CA4B"/><path d="M11.835 15.79a2.23 2.23 0 01-.744-.103v-.768c.192.05.39.075.587.076.425 0 .638-.235.638-.703v-5.1h.995v5.163a1.403 1.403 0 01-.38 1.07 1.505 1.505 0 01-1.096.366zm.419-7.802a.525.525 0 01.146-.398.568.568 0 01.418-.142.516.516 0 01.409.142.491.491 0 01.145.398.543.543 0 01-.145.393.563.563 0 01-.409.141.593.593 0 01-.418-.141.522.522 0 01-.146-.393zm6.266 4.475c.01.198-.03.394-.117.573a1.207 1.207 0 01-.38.45 2.435 2.435 0 01-1.432.356 3.446 3.446 0 01-1.504-.278v-.84c.48.23 1.004.356 1.538.37.612 0 .917-.18.917-.54a.43.43 0 00-.1-.289 1.194 1.194 0 00-.336-.24 5.67 5.67 0 00-.648-.278 3.048 3.048 0 01-1.096-.61 1.111 1.111 0 01-.285-.791 1.02 1.02 0 01.122-.517c.086-.158.212-.293.367-.39a2.33 2.33 0 011.318-.322c.538-.002 1.07.11 1.56.328l-.324.73a3.576 3.576 0 00-1.274-.305c-.525 0-.787.147-.787.436a.436.436 0 00.207.366c.282.167.582.304.895.408.295.103.577.237.843.399.162.11.295.253.392.42.09.175.134.37.129.567l-.005-.003z" fill="#5F7FBF"/><path d="M10.402 1.44l.153-.013V.004l-.181.014a11.404 11.404 0 00-7.385 3.516A10.874 10.874 0 000 11.002c0 2.767 1.067 5.433 2.989 7.468a11.403 11.403 0 007.385 3.515l.18.015v-1.43l-.152-.012a9.928 9.928 0 01-6.38-3.083A9.469 9.469 0 011.444 11 9.47 9.47 0 014.02 4.524a9.928 9.928 0 016.38-3.083z" fill="#96CA4B"/><path d="M19.557 3.513A11.367 11.367 0 0012.19.015L12.008 0v1.427l.153.013a9.93 9.93 0 016.382 3.084 9.471 9.471 0 012.578 6.478 9.47 9.47 0 01-2.578 6.477 9.93 9.93 0 01-6.382 3.084l-.153.014V22l.18-.015a11.459 11.459 0 005.836-2.144 11.05 11.05 0 003.78-4.84c.768-1.928.965-4.027.568-6.06a10.92 10.92 0 00-2.815-5.428z" fill="#5F7FBF"/></svg>