<svg width="14" height="14" fill="none" xmlns="http://www.w3.org/2000/svg"><path d="M6.413 2.257h-4.21c-.32 0-.625.125-.85.348A1.177 1.177 0 001 3.443v8.3c0 .314.127.615.352.838.226.222.532.347.85.347h8.421c.32 0 .625-.125.85-.347.226-.223.353-.524.353-.839v-4.15" stroke="#fff" stroke-linecap="round" stroke-linejoin="round"/><path d="M10.924 1.368a1.285 1.285 0 011.804 0 1.248 1.248 0 010 1.779L7.014 8.778l-2.405.593L5.21 7l5.714-5.632z" stroke="#fff" stroke-linecap="round" stroke-linejoin="round"/></svg>