<svg xmlns="http://www.w3.org/2000/svg" width="576.3" height="576.3" style="enable-background:new 0 0 576.3 576.3" xml:space="preserve"><path d="M523.926 335.325h-10.2c-6.375 0-10.2 5.1-10.2 10.199v15.301h-24.225v-15.301c0-6.375-5.1-10.199-10.2-10.199h-10.2c-6.375 0-10.199 5.1-10.199 10.199v15.301h-26.775v-15.301c0-6.375-5.1-10.199-10.2-10.199h-21.675v-73.95h24.225c5.101 0 10.2-2.55 11.476-7.65 2.55-5.1 1.274-10.2-2.55-14.025l-122.4-119.85c-1.275-1.275-3.825-2.55-6.375-3.825V68.85h85.425c7.65 0 12.75-6.375 12.75-12.75V20.4c0-7.65-6.375-12.75-12.75-12.75h-85.425V5.1c0-2.55-2.55-5.1-5.1-5.1h-3.825c-2.55 0-5.1 2.55-5.1 5.1v110.925c-2.55 1.275-3.825 2.55-5.1 3.825L155.451 239.7c-3.825 3.825-5.1 8.925-2.55 14.025s6.375 7.65 11.475 7.65h24.225v73.95h-20.4c-6.375 0-10.2 5.1-10.2 10.199v15.301h-26.775v-15.301c0-6.375-5.1-10.199-10.2-10.199h-11.475c-6.375 0-10.2 5.1-10.2 10.199v15.301h-25.5v-15.301c0-6.375-5.1-10.199-10.2-10.199h-10.2c-6.375 0-10.2 5.1-10.2 10.199v73.95c0 6.375 5.1 10.2 10.2 10.2h24.225V566.1c0 6.375 5.1 10.2 10.2 10.2h131.325V457.725c0-25.5 20.4-45.899 45.9-45.899h47.175c25.5 0 45.9 20.399 45.9 45.899V576.3h130.05c6.375 0 10.2-5.1 10.2-10.2V429.675h24.225c6.375 0 10.2-5.1 10.2-10.2v-73.95c1.275-6.376-3.826-10.2-8.925-10.2z"/></svg>