<svg xmlns="http://www.w3.org/2000/svg" viewBox="0 0 512 512" style="enable-background:new 0 0 512 512" xml:space="preserve"><path d="M497 482h-33.2v-17.134c0-80.691-42.859-154.278-112.467-194.211v-29.311C420.94 201.413 463.8 127.826 463.8 47.134V30H497c8.284 0 15-6.716 15-15s-6.716-15-15-15H15C6.716 0 0 6.716 0 15s6.716 15 15 15h33.2v17.134c0 80.692 42.86 154.28 112.467 194.211v29.311C91.06 310.587 48.2 384.175 48.2 464.866V482H15c-8.284 0-15 6.716-15 15s6.716 15 15 15h482c8.284 0 15-6.716 15-15s-6.716-15-15-15zM321.334 232.457v32.086H190.667v-32.086a15 15 0 0 0-8.067-13.302C118.204 185.592 78.2 119.677 78.2 47.134V30h355.6v17.134c0 72.542-40.004 138.457-104.4 172.021a15 15 0 0 0-8.066 13.302z"/></svg>